<svg width="540" height="336" viewBox="0 0 540 336" fill="none" xmlns="http://www.w3.org/2000/svg">
<rect x="1" y="1" width="538" height="334" rx="5" fill="white" stroke="#3C3D48" stroke-width="2"/>
<path d="M2 19H36V334H6C3.79086 334 2 332.209 2 330V19Z" fill="#F5F2EC"/>
<path d="M0 6C0 2.68629 2.68629 0 6 0H534C537.314 0 540 2.68629 540 6V19H0V6Z" fill="#3C3D48"/>
<circle cx="14" cy="10" r="2" fill="#F4F1EA"/>
<circle cx="22" cy="10" r="2" fill="#F4F1EA"/>
<circle cx="30" cy="10" r="2" fill="#F4F1EA"/>
<line x1="64" y1="51" x2="166" y2="51" stroke="#C7C1B4" stroke-width="2"/>
<line x1="9" y1="40.5" x2="28" y2="40.5" stroke="#C7C1B4" stroke-width="3"/>
<line x1="9" y1="50.5" x2="28" y2="50.5" stroke="#C7C1B4" stroke-width="3"/>
<line x1="9" y1="60.5" x2="28" y2="60.5" stroke="#C7C1B4" stroke-width="3"/>
<line x1="9" y1="70.5" x2="28" y2="70.5" stroke="#C7C1B4" stroke-width="3"/>
<line x1="176" y1="51" x2="278" y2="51" stroke="#C7C1B4" stroke-width="2"/>
<line x1="288" y1="51" x2="390" y2="51" stroke="#C7C1B4" stroke-width="2"/>
<line x1="400" y1="51" x2="502" y2="51" stroke="#C7C1B4" stroke-width="2"/>
<circle cx="59" cy="51" r="5" fill="white" stroke="#3C3D48" stroke-width="2"/>
<circle cx="171" cy="51" r="5" fill="white" stroke="#3C3D48" stroke-width="2"/>
<circle cx="283" cy="51" r="5" fill="#3C3D48" stroke="#3C3D48" stroke-width="2"/>
<circle cx="395" cy="51" r="5" fill="white" stroke="#3C3D48" stroke-width="2"/>
<circle cx="507" cy="51" r="5" fill="white" stroke="#3C3D48" stroke-width="2"/>
<rect x="55" y="73" width="456" height="45" fill="#F3F6E6" stroke="#3C3D48" stroke-width="2"/>
<path d="M481 93L487 99L493 93" stroke="#3C3D48" stroke-width="2" stroke-linecap="round" stroke-linejoin="round"/>
<circle cx="79" cy="96" r="9" fill="white" stroke="#3C3D48" stroke-width="2"/>
<line x1="230" y1="91" x2="306" y2="91" stroke="#C7C1B4" stroke-width="4"/>
<line x1="230" y1="101" x2="268" y2="101" stroke="#C7C1B4" stroke-width="4"/>
<circle cx="117" cy="96" r="9" fill="white" stroke="#3C3D48" stroke-width="2"/>
<line x1="371" y1="91" x2="447" y2="91" stroke="#C7C1B4" stroke-width="4"/>
<line x1="371" y1="101" x2="409" y2="101" stroke="#C7C1B4" stroke-width="4"/>
<circle cx="155" cy="96" r="9" fill="white" stroke="#3C3D48" stroke-width="2"/>
<rect x="54.5" y="138.5" width="457" height="84" fill="#EFECE3" stroke="#3C3D48"/>
<line x1="64" y1="147.5" x2="105" y2="147.5" stroke="#B7B1A3" stroke-width="5"/>
<line x1="179" y1="147.5" x2="220" y2="147.5" stroke="#B7B1A3" stroke-width="5"/>
<line x1="294" y1="147.5" x2="335" y2="147.5" stroke="#B7B1A3" stroke-width="5"/>
<line x1="409" y1="147.5" x2="450" y2="147.5" stroke="#B7B1A3" stroke-width="5"/>
<rect x="55" y="157" width="456" height="65" fill="white" stroke="#3C3D48" stroke-width="2"/>
<line x1="64" y1="175.5" x2="502" y2="175.5" stroke="#E4DFD2" stroke-width="3"/>
<line x1="64" y1="191.5" x2="502" y2="191.5" stroke="#E4DFD2" stroke-width="3"/>
<line x1="64" y1="207.5" x2="502" y2="207.5" stroke="#E4DFD2" stroke-width="3"/>
<rect x="54.5" y="233.5" width="457" height="84" fill="#EFECE3" stroke="#3C3D48"/>
<line x1="64" y1="242.5" x2="105" y2="242.5" stroke="#B7B1A3" stroke-width="5"/>
<line x1="179" y1="242.5" x2="220" y2="242.5" stroke="#B7B1A3" stroke-width="5"/>
<line x1="294" y1="242.5" x2="335" y2="242.5" stroke="#B7B1A3" stroke-width="5"/>
<line x1="409" y1="242.5" x2="450" y2="242.5" stroke="#B7B1A3" stroke-width="5"/>
<rect x="55" y="252" width="456" height="65" fill="white" stroke="#3C3D48" stroke-width="2"/>
<line x1="64" y1="270.5" x2="502" y2="270.5" stroke="#E4DFD2" stroke-width="3"/>
<line x1="64" y1="286.5" x2="502" y2="286.5" stroke="#E4DFD2" stroke-width="3"/>
<line x1="64" y1="302.5" x2="502" y2="302.5" stroke="#E4DFD2" stroke-width="3"/>
</svg>
